Coordinates
version=1
nRows=9
nColumns=24
inDegrees=yes

Units are S.I. units (second, meters, Newtons, ...)
Angles are in degrees.

endheader
time	pelvis_tilt	pelvis_list	pelvis_rotation	pelvis_tx	pelvis_ty	pelvis_tz	hip_flexion_r	hip_adduction_r	hip_rotation_r	knee_angle_r	ankle_angle_r	subtalar_angle_r	mtp_angle_r	hip_flexion_l	hip_adduction_l	hip_rotation_l	knee_angle_l	ankle_angle_l	subtalar_angle_l	mtp_angle_l	lumbar_extension	lumbar_bending	lumbar_rotation
      3.22000000	     -0.99981181	     -4.82673296	     -1.03110381	     -1.12793935	      0.93753262	      0.25168815	     12.26648139	     13.36126598	      9.19247255	    -23.42969839	     13.14081974	    -19.38355971	      0.00000000	     26.62013464	     -5.15948436	     -1.95692472	    -71.19212263	     10.20625031	    -14.25670009	      0.00000000	    -10.54231361	      5.79835874	     -3.25564575
      3.22500000	     -0.91660596	     -4.59342562	     -1.24799569	     -1.12140897	      0.93883938	      0.25210232	     11.38718683	     13.14024157	      9.64794685	    -22.86041620	     13.20429252	    -19.48674850	      0.00000000	     27.07990261	     -4.92426888	     -2.04965882	    -70.23716780	     10.71227865	    -13.65384437	      0.00000000	    -10.65627954	      5.43133209	     -2.96400072
      3.23000000	     -0.96414482	     -4.34182785	     -1.36167178	     -1.11488578	      0.93988841	      0.25233059	     10.69073898	     12.85722510	      9.87503149	    -22.32187181	     13.31428446	    -19.49834808	      0.00000000	     27.67897004	     -4.61068454	     -2.05319625	    -69.20102258	     11.07751422	    -13.18433745	      0.00000000	    -10.59361228	      5.07356027	     -2.90989091
      3.23500000	     -0.88953579	     -4.10134960	     -1.60331195	     -1.10836488	      0.94103082	      0.25272038	      9.84426245	     12.60873537	     10.29648634	    -21.78081998	     13.40941264	    -19.54881635	      0.00000000	     28.06644073	     -4.37498539	     -2.19645913	    -68.05026354	     11.46878729	    -12.76518802	      0.00000000	    -10.69795785	      4.71020129	     -2.61699159
      3.24000000	     -0.90337772	     -3.87120732	     -1.77101461	     -1.10183610	      0.94193868	      0.25300331	      9.12524764	     12.34580224	     10.55018016	    -21.26473961	     13.52888327	    -19.56075759	      0.00000000	     28.53697583	     -4.11447256	     -2.27510476	    -66.82527518	     11.79494125	    -12.43912660	      0.00000000	    -10.67974570	      4.37754934	     -2.49500622
      3.24500000	     -0.88934942	     -3.65520638	     -1.95732898	     -1.09533393	      0.94279226	      0.25331131	      8.38134228	     12.09652512	     10.85354954	    -20.76050402	     13.66467339	    -19.53944745	      0.00000000	     28.94098820	     -3.86961988	     -2.35537527	    -65.51732113	     12.05332832	    -12.18928969	      0.00000000	    -10.70462809	      4.04616152	     -2.27729267
      3.25000000	     -0.91853371	     -3.45843672	     -2.12484752	     -1.08879744	      0.94345260	      0.25359912	      7.70490766	     11.85986392	     11.06820033	    -20.28111646	     13.82572553	    -19.51684724	      0.00000000	     29.36122006	     -3.64783762	     -2.43868486	    -64.13561597	     12.30519230	    -11.99052972	      0.00000000	    -10.66512909	      3.75018938	     -2.14315666
      3.25500000	     -0.98854905	     -3.29392629	     -2.25489344	     -1.08229705	      0.94394778	      0.25382956	      7.09327436	     11.65080893	     11.25490267	    -19.83054032	     13.97331409	    -19.46015271	      0.00000000	     29.80528597	     -3.42154082	     -2.42675233	    -62.69226317	     12.52326144	    -11.80499237	      0.00000000	    -10.58337108	      3.49341544	     -2.01299641
      3.26000000	     -0.92712758	     -3.10680978	     -2.50440672	     -1.07577309	      0.94454876	      0.25418020	      6.33300460	     11.42216825	     11.57022054	    -19.38983222	     14.17335430	    -19.39924887	      0.00000000	     30.03034373	     -3.24688141	     -2.60489979	    -61.12349289	     12.68235909	    -11.78903737	      0.00000000	    -10.66709343	      3.19698452	     -1.72306026
